<?xml version="1.0" encoding="UTF-8"?>
<svg version="1.1" xmlns="http://www.w3.org/2000/svg" width="960" height="306">
<path d="M0 0 C64.35 0 128.7 0 195 0 C195 7.87533329 195 7.87533329 194.21621704 12.11151123 C194.04241013 13.06759781 193.86860321 14.02368439 193.68952942 15.00874329 C193.496306 16.03549667 193.30308258 17.06225006 193.10400391 18.12011719 C192.90239151 19.21847397 192.70077911 20.31683075 192.49305725 21.44847107 C191.82723741 25.06581067 191.15224178 28.68136507 190.4765625 32.296875 C190.01018026 34.81310685 189.54415132 37.32940422 189.07846069 39.84576416 C188.10233676 45.11198486 187.12172134 50.37734215 186.13769531 55.64208984 C185.00042527 61.72722095 183.87280131 67.81408227 182.75004065 73.90190578 C181.66817576 79.76623461 180.57850695 85.6290937 179.48557663 91.49137115 C179.02178797 93.98372943 178.56011518 96.47648237 178.10057449 98.96962738 C177.4586792 102.44686226 176.80793156 105.92232442 176.15478516 109.39746094 C175.9656102 110.43231125 175.77643524 111.46716156 175.58152771 112.53337097 C175.40208115 113.47817825 175.22263458 114.42298553 175.03775024 115.39642334 C174.80822379 116.62858896 174.80822379 116.62858896 174.57406044 117.88564682 C174 120 174 120 172 123 C166.8246546 116.91534157 161.65290293 110.83263435 156.625 104.625 C152.44608442 99.48575912 148.11305747 94.49179818 143.74902344 89.51000977 C139.83585272 85.02467379 136.14231687 80.43564384 132.5859375 75.66015625 C132.06257812 75.11230469 131.53921875 74.56445312 131 74 C127.78579301 73.65445289 127.78579301 73.65445289 125.50390625 76.38671875 C124.51532711 77.47969781 123.53542971 78.58056742 122.5625 79.6875 C121.48199682 80.88822423 120.4012612 82.08873933 119.3203125 83.2890625 C118.49321777 84.2157373 118.49321777 84.2157373 117.64941406 85.16113281 C115.11080119 87.99133295 112.5232029 90.77539069 109.9375 93.5625 C106.11533806 97.69950842 102.30377016 101.84608056 98.5 106 C94.6962247 110.15392506 90.88353196 114.29944189 87.0625 118.4375 C86.5672583 118.9739917 86.0720166 119.5104834 85.56176758 120.06323242 C82.98411184 122.85468368 80.4038325 125.64366256 77.8203125 128.4296875 C77.2955835 128.99631104 76.77085449 129.56293457 76.23022461 130.14672852 C75.24497274 131.21056354 74.25889038 132.27363043 73.27172852 133.33569336 C69.42680186 137.48967811 65.73233595 141.7344732 62 146 C95.66 146.33 129.32 146.66 164 147 C162.87481751 157.12664242 162.87481751 157.12664242 162.16796875 160.47827148 C161.93267456 161.6087516 161.93267456 161.6087516 161.69262695 162.7620697 C161.44258911 163.92978661 161.44258911 163.92978661 161.1875 165.12109375 C161.01371826 165.94706558 160.83993652 166.77303741 160.66088867 167.6240387 C160.29649123 169.35127563 159.93001395 171.07807501 159.56152344 172.80444336 C158.99652443 175.45379742 158.43920448 178.10468582 157.8828125 180.75585938 C157.52649043 182.44019916 157.16973532 184.12444742 156.8125 185.80859375 C156.64580811 186.6012413 156.47911621 187.39388885 156.30737305 188.21055603 C155.11561323 193.76877354 155.11561323 193.76877354 154 196 C89.65 196 25.3 196 -41 196 C-38.17831633 191.7674745 -36.20388368 188.98523876 -32.6875 185.625 C-29.9519545 182.95142478 -27.30075269 180.28006659 -24.8125 177.375 C-21.3980201 173.39804198 -17.83335512 169.57406394 -14.25 165.75 C-8.12107666 159.20724476 -2.0465241 152.61897609 4 146 C12.14830454 137.09481376 20.328744 128.2196958 28.52050781 119.35449219 C34.31113258 113.08721149 40.09354178 106.8127443 45.85571289 100.51928711 C49.7321468 96.2873572 53.62481704 92.07057076 57.51953125 87.85546875 C61.30584258 83.75607741 65.07943995 79.64523858 68.84667969 75.52832031 C71.26029832 72.89228038 73.68025263 70.26239152 76.109375 67.640625 C76.63337891 67.07472656 77.15738281 66.50882812 77.69726562 65.92578125 C78.68980514 64.85458766 79.68321037 63.78419514 80.67773438 62.71484375 C84.5408358 58.54463385 88.25151474 54.28398315 92 50 C58.34 49.67 24.68 49.34 -10 49 C-9.34535042 42.45350417 -8.59859622 36.36118631 -7.1875 30 C-7.01371826 29.19763916 -6.83993652 28.39527832 -6.66088867 27.56860352 C-6.29707586 25.89428045 -5.93060041 24.22053383 -5.56152344 22.54736328 C-4.99549338 19.97955564 -4.43852707 17.40990154 -3.8828125 14.83984375 C-3.52656472 13.20561506 -3.16981244 11.57149624 -2.8125 9.9375 C-2.64580811 9.16986328 -2.47911621 8.40222656 -2.30737305 7.61132812 C-1.11620416 2.23240832 -1.11620416 2.23240832 0 0 Z " fill="#FFDE28" transform="translate(47,80)"/>
<path d="M0 0 C1.60279192 0.00015914 3.20558896 0.00585476 4.80834961 0.01586914 C5.65038437 0.01728409 6.49241913 0.01869904 7.35997009 0.02015686 C10.06024671 0.02577276 12.76044163 0.03832791 15.46069336 0.05102539 C17.28686404 0.05603834 19.11303602 0.06060161 20.93920898 0.06469727 C25.42556878 0.07574735 29.9118672 0.0930226 34.39819336 0.11352539 C32.86623855 10.43498654 30.65930588 20.60353061 28.45703125 30.79833984 C27.83047332 33.70020167 27.20876562 36.60307321 26.58764648 39.50610352 C26.19014243 41.3557736 25.792366 43.20538518 25.39428711 45.05493164 C25.20885849 45.92050186 25.02342987 46.78607208 24.8323822 47.6778717 C24.65872635 48.47978439 24.4850705 49.28169708 24.30615234 50.10791016 C24.15452133 50.81117935 24.00289032 51.51444855 23.84666443 52.23902893 C23.39819336 54.11352539 23.39819336 54.11352539 22.39819336 57.11352539 C80.80819336 57.11352539 139.21819336 57.11352539 199.39819336 57.11352539 C196.84490663 61.36900327 194.1395988 64.91653189 190.89819336 68.61352539 C189.81840612 69.85930707 188.73898724 71.1054081 187.65991211 72.35180664 C187.11512207 72.97909668 186.57033203 73.60638672 186.0090332 74.25268555 C183.55669845 77.08561909 181.13070301 79.94046643 178.71069336 82.80102539 C178.25557373 83.33864502 177.8004541 83.87626465 177.33154297 84.43017578 C174.50661404 87.77622292 171.72294022 91.15286558 168.96069336 94.55102539 C165.00311148 99.41481564 160.9327689 104.17233771 156.83984375 108.921875 C153.80874047 112.44651458 150.8283402 116.00392422 147.89819336 119.61352539 C143.51106434 125.01428711 138.98595924 130.28820239 134.44897461 135.56274414 C123.85084784 147.88512922 113.55239129 160.42077798 103.39819336 173.11352539 C127.48819336 173.44352539 151.57819336 173.77352539 176.39819336 174.11352539 C173.75819336 186.98352539 171.11819336 199.85352539 168.39819336 213.11352539 C122.19819336 213.11352539 75.99819336 213.11352539 28.39819336 213.11352539 C32.23135845 208.0026386 36.02706388 203.09338403 40.21069336 198.30102539 C43.83173184 194.11671426 47.41237593 189.91206528 50.89819336 185.61352539 C55.28532238 180.21276367 59.81042748 174.93884839 64.34741211 169.66430664 C70.59246657 162.40321536 76.79450486 155.1079911 82.83569336 147.67602539 C86.79327524 142.81223514 90.86361782 138.05471308 94.95654297 133.30517578 C97.98764625 129.7805362 100.96804652 126.22312657 103.89819336 122.61352539 C107.89751483 117.68735388 112.00736453 112.86424946 116.15014648 108.05883789 C116.86847656 107.22545898 116.86847656 107.22545898 117.60131836 106.37524414 C118.02058594 105.89015381 118.43985352 105.40506348 118.87182617 104.90527344 C121.0688611 102.32625243 123.22927055 99.71623276 125.39819336 97.11352539 C88.76819336 97.11352539 52.13819336 97.11352539 14.39819336 97.11352539 C8.99293183 117.7764278 8.99293183 117.7764278 13.14038086 138.18774414 C20.33415804 149.20181913 27.21386962 150.81744446 40.39819336 154.11352539 C36.43819336 172.92352539 36.43819336 172.92352539 32.39819336 192.11352539 C15.24665899 192.11352539 0.10056949 187.36704844 -12.42211914 175.32446289 C-13.14141602 174.59485352 -13.86071289 173.86524414 -14.60180664 173.11352539 C-15.46418945 172.26661133 -15.46418945 172.26661133 -16.34399414 171.40258789 C-26.58181683 160.52821665 -30.6176243 144.84167551 -30.6809082 130.2512207 C-30.25584506 118.76402046 -27.34674825 107.22400333 -24.60180664 96.11352539 C-30.87180664 96.11352539 -37.14180664 96.11352539 -43.60180664 96.11352539 C-38.41501849 68.66250033 -38.41501849 68.66250033 -35.60180664 57.11352539 C-29.00180664 57.11352539 -22.40180664 57.11352539 -15.60180664 57.11352539 C-15.48321289 55.69048096 -15.36461914 54.26743652 -15.24243164 52.80126953 C-14.67318119 47.13619505 -13.58029438 41.66388758 -12.35180664 36.10961914 C-12.13363281 35.10512222 -11.91545898 34.10062531 -11.69067383 33.06568909 C-11.23275641 30.96345137 -10.77211047 28.86180627 -10.30883789 26.76074219 C-9.59723066 23.53025175 -8.8957935 20.29766932 -8.19555664 17.06469727 C-7.74823464 15.01704122 -7.30033892 12.96951041 -6.85180664 10.92211914 C-6.64136719 9.95245712 -6.43092773 8.9827951 -6.21411133 7.98374939 C-6.01720703 7.09514725 -5.82030273 6.2065451 -5.61743164 5.29101562 C-5.44501953 4.50621323 -5.27260742 3.72141083 -5.0949707 2.91282654 C-4.18846801 -0.39453394 -3.71727739 0.11716491 0 0 Z " fill="#0074E1" transform="translate(689.601806640625,75.886474609375)"/>
<path d="M0 0 C13.05215031 11.31055904 20.16492247 25.7849363 21.73046875 42.8828125 C22.93052082 65.35045397 14.70419639 87.26659621 0.19140625 104.33203125 C-0.53820312 105.13253906 -1.2678125 105.93304688 -2.01953125 106.7578125 C-2.45104492 107.2317041 -2.88255859 107.7055957 -3.32714844 108.19384766 C-20.43840047 126.73996808 -43.4024274 139.41636455 -68.859375 140.99609375 C-83.99378215 141.40478349 -96.79323425 138.27275398 -110.01953125 130.7578125 C-110.14714844 131.8917041 -110.27476562 133.0255957 -110.40625 134.19384766 C-110.98099316 138.77833024 -111.87117054 143.26412492 -112.83203125 147.78125 C-113.00581299 148.60863678 -113.17959473 149.43602356 -113.35864258 150.28848267 C-113.72350439 152.02159676 -114.08998055 153.75437173 -114.45800781 155.48681641 C-115.02216306 158.14521403 -115.57977571 160.80492685 -116.13671875 163.46484375 C-116.49310284 165.15372749 -116.84986026 166.8425325 -117.20703125 168.53125 C-117.45706909 169.72492691 -117.45706909 169.72492691 -117.7121582 170.94271851 C-118.90433812 176.52742624 -118.90433812 176.52742624 -120.01953125 178.7578125 C-132.55953125 178.7578125 -145.09953125 178.7578125 -158.01953125 178.7578125 C-156.89444416 168.63202867 -156.89444416 168.63202867 -156.05975342 164.67636108 C-155.77824181 163.32722626 -155.77824181 163.32722626 -155.49104309 161.95083618 C-155.28742661 160.99687958 -155.08381012 160.04292297 -154.87402344 159.06005859 C-154.54935341 157.51415039 -154.54935341 157.51415039 -154.21812439 155.93701172 C-153.50550133 152.55076454 -152.78635777 149.16594611 -152.06640625 145.78125 C-151.5640172 143.40868857 -151.06176108 141.03609899 -150.55963135 138.66348267 C-149.50689793 133.69507282 -148.45057441 128.72744151 -147.39208984 123.76025391 C-146.04401464 117.43132514 -144.70787277 111.09994361 -143.37485886 104.76782799 C-142.34099161 99.8659907 -141.29915762 94.96587098 -140.2551651 90.06618118 C-139.75966104 87.73466422 -139.26691797 85.40255854 -138.7771225 83.06983566 C-131.75260585 49.65981187 -120.19829276 21.26729595 -90.52734375 1.8203125 C-62.6491651 -15.00575976 -27.54478805 -20.45369772 0 0 Z M-79.01953125 36.7578125 C-80.34984375 37.655 -80.34984375 37.655 -81.70703125 38.5703125 C-91.77102992 48.09031124 -96.24506147 60.15812315 -97.01953125 73.7578125 C-96.63682853 82.91716426 -92.26718309 89.97995976 -85.64453125 96.1328125 C-78.10124067 102.0785066 -69.01766093 103.40663205 -59.625 102.390625 C-45.59045615 99.88390383 -34.98088328 92.77491895 -26.01953125 81.7578125 C-23.61006802 77.89011701 -21.7155165 73.98246891 -20.01953125 69.7578125 C-19.56578125 68.6440625 -19.11203125 67.5303125 -18.64453125 66.3828125 C-16.78831329 55.61674832 -17.31351424 46.05285406 -23.3046875 36.765625 C-27.60249065 31.18686103 -34.01997016 26.97139665 -41.01953125 25.7578125 C-56.37265364 24.77508378 -66.61914275 27.24858926 -79.01953125 36.7578125 Z " fill="#0074E1" transform="translate(371.01953125,127.2421875)"/>
<path d="M0 0 C14.32255695 12.41145115 20.44475227 27.78081312 22.02734375 46.29296875 C22.29366735 58.77887877 18.92122794 71.50222914 16.28515625 83.62890625 C15.92878399 85.28887749 15.57292825 86.94895969 15.21755981 88.60914612 C14.29220602 92.92552189 13.35996273 97.2403797 12.42614746 101.55493164 C11.30107553 106.76034464 10.18479772 111.96765005 9.06700134 117.17462921 C7.37812814 125.03713961 5.67828282 132.89720406 3.98046875 140.7578125 C-8.88953125 140.7578125 -21.75953125 140.7578125 -35.01953125 140.7578125 C-34.68953125 137.7878125 -34.35953125 134.8178125 -34.01953125 131.7578125 C-35.86804688 132.48097656 -35.86804688 132.48097656 -37.75390625 133.21875 C-59.18952086 141.46605605 -79.59381718 144.09337358 -101.3359375 135.4375 C-115.62955289 128.75619319 -125.83075458 118.35205218 -131.98828125 103.76953125 C-139.05814126 83.12232646 -136.46411037 62.21910871 -127.08984375 42.83544922 C-122.03983548 32.71830572 -116.00027906 24.71470158 -108.01953125 16.7578125 C-107.35308594 16.03207031 -106.68664062 15.30632812 -106 14.55859375 C-79.73772559 -13.58350661 -31.99103546 -23.75530964 0 0 Z M-79.01953125 36.7578125 C-80.34984375 37.655 -80.34984375 37.655 -81.70703125 38.5703125 C-91.77102992 48.09031124 -96.24506147 60.15812315 -97.01953125 73.7578125 C-96.63682853 82.91716426 -92.26718309 89.97995976 -85.64453125 96.1328125 C-78.10124067 102.0785066 -69.01766093 103.40663205 -59.625 102.390625 C-45.59045615 99.88390383 -34.98088328 92.77491895 -26.01953125 81.7578125 C-23.61006802 77.89011701 -21.7155165 73.98246891 -20.01953125 69.7578125 C-19.56578125 68.6440625 -19.11203125 67.5303125 -18.64453125 66.3828125 C-16.78831329 55.61674832 -17.31351424 46.05285406 -23.3046875 36.765625 C-27.60249065 31.18686103 -34.01997016 26.97139665 -41.01953125 25.7578125 C-56.37265364 24.77508378 -66.61914275 27.24858926 -79.01953125 36.7578125 Z " fill="#0074E1" transform="translate(615.01953125,127.2421875)"/>
<path d="M0 0 C12.87 0 25.74 0 39 0 C35.93239493 15.62323656 32.70501366 31.20494866 29.390625 46.77734375 C28.97168396 48.74800861 28.55277963 50.71868129 28.13391113 52.68936157 C26.39890186 60.84923383 24.66281964 69.00886945 22.91845703 77.16674805 C21.83822244 82.21962479 20.76325025 87.27359695 19.69164276 92.32831001 C19.28694673 94.2323604 18.88031672 96.1360009 18.47162628 98.03919792 C17.90222057 100.69168731 17.33955555 103.34552745 16.77832031 105.99975586 C16.61210678 106.76609344 16.44589325 107.53243103 16.27464294 108.32199097 C13.95353232 119.39710423 12.43797237 129.806031 18.75 139.8125 C25.39765179 148.91689267 33.38645243 151.53614074 44 154 C43.44322254 162.38714887 41.7559147 170.43158618 39.9375 178.625 C39.65248001 179.92827294 39.36797132 181.23165781 39.08398438 182.53515625 C38.39432225 185.69123718 37.69955412 188.84609966 37 192 C20.52801812 192.55547539 4.92784066 186.90566884 -7.68359375 176.2578125 C-19.91149632 164.33921607 -25.89759343 148.49273853 -26.17700195 131.5703125 C-26.13880232 124.78188894 -25.02134567 118.44006968 -23.6484375 111.80859375 C-23.38306756 110.48706788 -23.11839637 109.16540155 -22.8543396 107.84361267 C-21.92475222 103.22448575 -20.96436409 98.61197441 -20 94 C-19.81450089 93.1115464 -19.62900177 92.2230928 -19.43788147 91.30771637 C-16.43955133 76.96169206 -13.38406427 62.62798159 -10.31677246 48.29656982 C-9.14781553 42.83163945 -7.98227659 37.36598015 -6.81640625 31.90039062 C-4.54751928 21.26623093 -2.27467783 10.63292252 0 0 Z " fill="#0074E1" transform="translate(430,76)"/>
<path d="M0 0 C0.21725235 0.55454865 0.4345047 1.10909729 0.65834045 1.68045044 C3.00281477 7.66456168 5.34797624 13.64840334 7.69348145 19.6321106 C8.60387229 21.95486549 9.5141107 24.27768014 10.42419434 26.60055542 C15.15209389 38.66745889 19.88511508 50.73209829 24.66796875 62.77734375 C25.02057266 63.66627319 25.37317657 64.55520264 25.73646545 65.47106934 C27.38019716 69.61468393 29.02716251 73.75695453 30.67993164 77.89697266 C31.26072766 79.35964167 31.84138438 80.822366 32.421875 82.28515625 C32.8188282 83.2736985 32.8188282 83.2736985 33.22380066 84.2822113 C35 88.77280177 35 88.77280177 35 91 C-9.55 91 -54.1 91 -100 91 C-99.00931762 87.03727048 -98.69073356 86.3153015 -95.9375 83.6875 C-95.30199219 83.0790625 -94.66648437 82.470625 -94.01171875 81.84375 C-91.45601989 79.50143959 -88.85959223 77.21321423 -86.234375 74.94921875 C-83.62148624 72.66979306 -81.06069979 70.33787647 -78.5 68 C-74.73649479 64.56735239 -70.93870649 61.1844499 -67.09375 57.84375 C-64.53580973 55.59123543 -62.0182102 53.29682908 -59.5 51 C-55.71065874 47.54424587 -51.88916302 44.1347711 -48.01953125 40.76953125 C-43.97334911 37.22423046 -39.99256813 33.60541001 -36 30 C-26.51127959 21.43139793 -26.51127959 21.43139793 -22.0625 17.5625 C-17.844658 13.89332038 -13.72941983 10.11458986 -9.61328125 6.33203125 C-2.51758794 0 -2.51758794 0 0 0 Z " fill="#0074E1" transform="translate(606,3)"/>
<path d="M0 0 C2.76420156 1.18169286 2.76420156 1.18169286 4.875 0 C5.535 -0.37125 6.195 -0.7425 6.875 -1.125 C10.67862984 -1.61056977 12.37259492 -1.42644305 15.6875 0.5625 C18.20920678 3.22830431 18.51776181 4.28220444 18.875 7.875 C18.31640625 10.98828125 18.31640625 10.98828125 17.4375 14.1875 C17.00630859 15.79044922 17.00630859 15.79044922 16.56640625 17.42578125 C16.33824219 18.23402344 16.11007812 19.04226563 15.875 19.875 C14.225 19.875 12.575 19.875 10.875 19.875 C11.205 15.255 11.535 10.635 11.875 5.875 C6.99285113 4.28574435 6.99285113 4.28574435 3.875 6.875 C2.89021918 9.71376734 2.89021918 9.71376734 2.25 12.9375 C0.95438931 18.79561069 0.95438931 18.79561069 -0.125 19.875 C-1.775 19.875 -3.425 19.875 -5.125 19.875 C-4.795 15.255 -4.465 10.635 -4.125 5.875 C-8.72888526 4.36399068 -8.72888526 4.36399068 -10.83203125 5.92578125 C-12.56583206 8.53957764 -13.12314217 11.0096296 -13.8125 14.0625 C-14.06386719 15.14917969 -14.31523438 16.23585938 -14.57421875 17.35546875 C-14.75597656 18.18691406 -14.93773437 19.01835937 -15.125 19.875 C-17.105 19.875 -19.085 19.875 -21.125 19.875 C-18.33200462 4.5702936 -18.33200462 4.5702936 -11.1875 -0.5 C-7.14246953 -1.72576681 -3.95034366 -1.42212372 0 0 Z " fill="#0074E1" transform="translate(938.125,268.125)"/>
<path d="M0 0 C2.55376992 0.85125664 3.66416489 1.568212 5.3125 3.6875 C6.36223587 7.21842976 5.96451211 9.44336158 5 13 C2.96909059 16.66289018 0.78873519 19.35555235 -3.22265625 20.80078125 C-7.2088353 21.45959882 -9.37354967 21.32627621 -13 19.4375 C-15.45237599 16.44866676 -16 14.86303629 -16 11 C-13.22152039 3.28200108 -8.07136603 -0.48428196 0 0 Z M-8.25 6.6875 C-10.19833221 8.87392713 -10.19833221 8.87392713 -10.375 11.625 C-10.20984251 14.18227196 -10.20984251 14.18227196 -8 16 C-4.96655046 15.91115 -4.96655046 15.91115 -2 15 C0.14915785 11.77626323 0.38286803 10.73296326 0 7 C-0.66 6.34 -1.32 5.68 -2 5 C-5.93541667 4.6 -5.93541667 4.6 -8.25 6.6875 Z " fill="#0074E1" transform="translate(912,267)"/>
<path d="M0 0 C2.3125 0.8125 2.3125 0.8125 4 2 C4.33 2.99 4.66 3.98 5 5 C3.35 5.99 1.7 6.98 0 8 C-0.66 7.34 -1.32 6.68 -2 6 C-5.09926819 6.32198966 -5.09926819 6.32198966 -8 7 C-8.33 9.31 -8.66 11.62 -9 14 C-5.52852158 14.74957157 -5.52852158 14.74957157 -2 15 C-1.67 14.34 -1.34 13.68 -1 13 C0.32 14.32 1.64 15.64 3 17 C-4.69230769 21.92307692 -4.69230769 21.92307692 -10 21 C-13.3795917 19.04734702 -14.71224763 17.82728805 -16 14.125 C-16 10.21172616 -15.13206326 8.26916366 -13 5 C-8.54831007 0.98262128 -6.01142304 -0.36068538 0 0 Z " fill="#0074E1" transform="translate(893,267)"/>
<path d="M0 0 C1.32 0.66 2.64 1.32 4 2 C3.67 3.32 3.34 4.64 3 6 C1.35 6.33 -0.3 6.66 -2 7 C-2.33 5.35 -2.66 3.7 -3 2 C-2.01 1.34 -1.02 0.68 0 0 Z " fill="#0074E1" transform="translate(870,281)"/>
</svg>
