<?xml version="1.0" encoding="UTF-8"?>
<svg version="1.1" xmlns="http://www.w3.org/2000/svg" width="521" height="167">
<path d="M0 0 C0.79550735 0.00092179 1.59101469 0.00184359 2.41062832 0.00279331 C3.77578327 0.00073132 3.77578327 0.00073132 5.16851711 -0.00137234 C6.1748016 0.00222294 7.18108608 0.00581821 8.21786404 0.00952244 C9.27139568 0.00937641 10.32492733 0.00923038 11.41038418 0.00907993 C14.91125415 0.00977957 18.41207166 0.01757435 21.9129324 0.02539158 C24.33288958 0.02725558 26.75284714 0.02867957 29.17280483 0.0296793 C35.55642639 0.03350591 41.94002536 0.04333742 48.32363796 0.05438328 C54.83191529 0.06459432 61.34019625 0.06917626 67.84847927 0.0742197 C80.62908789 0.08495956 93.40968082 0.10184671 106.19027615 0.12304783 C106.0406438 1.70094703 105.88864999 3.27862239 105.7356863 4.85620213 C105.65130306 5.73479389 105.56691982 6.61338566 105.47997952 7.51860142 C105.0515722 11.37000259 104.32670698 15.13828749 103.56527615 18.93554783 C103.21308791 20.73750898 102.86158688 22.53960451 102.51058865 24.34179783 C102.20749783 25.89060642 102.20749783 25.89060642 101.89828396 27.47070408 C100.54854458 34.43349756 99.2394014 41.40403961 97.92397976 48.37338352 C97.28988966 51.73214076 96.65466394 55.09068277 96.01940823 58.4492197 C95.40949533 61.67379086 94.79988938 64.89842001 94.19027615 68.12304783 C90.6323437 66.93707035 89.99032326 65.84528415 87.81527615 62.87304783 C85.91039136 60.28101283 84.03532398 57.96809566 81.7566824 55.68945408 C78.23189327 52.16466495 75.25555481 48.26828471 72.1785574 44.35351658 C71.52242458 43.61746189 70.86629177 42.8814072 70.19027615 42.12304783 C68.12089948 41.88841127 68.12089948 41.88841127 66.88558865 43.41601658 C66.36738552 44.04121189 65.8491824 44.6664072 65.31527615 45.31054783 C61.98479699 49.2287586 58.55516958 53.03492272 55.06527615 56.81054783 C54.5627029 57.3567075 54.06012966 57.90286716 53.54232693 58.46557713 C53.05232204 58.99578465 52.56231716 59.52599216 52.05746365 60.07226658 C51.62546658 60.53979343 51.19346951 61.00732029 50.74838161 61.48901463 C48.60256092 63.73940289 46.38900234 65.92432163 44.19027615 68.12304783 C40.89027615 71.75304783 37.59027615 75.38304783 34.19027615 79.12304783 C52.34027615 79.45304783 70.49027615 79.78304783 89.19027615 80.12304783 C86.92435854 95.98447105 86.92435854 95.98447105 85.62777615 101.43554783 C85.37898708 102.50418064 85.13019802 103.57281345 84.8738699 104.67382908 C84.19027615 107.12304783 84.19027615 107.12304783 83.19027615 108.12304783 C81.79883926 108.21847878 80.40259247 108.24493358 79.00788784 108.24330235 C77.65535412 108.24536434 77.65535412 108.24536434 76.27549648 108.24746799 C75.27856274 108.24387272 74.28162899 108.24027744 73.25448513 108.23657322 C72.21070705 108.23671925 71.16692898 108.23686527 70.09152126 108.23701572 C66.62311672 108.23631609 63.15476512 108.22852136 59.6863699 108.22070408 C57.28883296 108.21884008 54.89129565 108.21741609 52.4937582 108.21641636 C46.1693203 108.21258977 39.8449052 108.20275829 33.52047634 108.19171238 C27.07252212 108.18150128 20.62456424 108.17691939 14.17660427 108.17187595 C1.51448514 108.16113614 -11.14761815 108.14424902 -23.80972385 108.12304783 C-21.8070164 102.71848115 -18.99273672 98.81232596 -14.3917551 95.25195408 C-11.74594008 93.07045757 -9.87328106 90.85226864 -7.80972385 88.12304783 C-5.0872187 84.5223152 -2.32500688 81.93308745 1.19027615 79.12304783 C2.62970394 77.45128197 4.02425818 75.74009909 5.37777615 73.99804783 C9.18926389 69.23527362 13.24024879 64.93022901 17.63558865 60.70507908 C20.32914712 57.98269047 22.81916188 55.13729328 25.32553005 52.24389744 C29.02240487 48.03929525 32.90805191 44.00867579 36.76058865 39.94726658 C37.7041824 38.94759861 37.7041824 38.94759861 38.66683865 37.92773533 C39.22451931 37.3397617 39.78219997 36.75178806 40.35678005 36.14599705 C42.71590274 33.54310882 44.94137049 30.82173461 47.19027615 28.12304783 C29.37027615 28.12304783 11.55027615 28.12304783 -6.80972385 28.12304783 C-7.81322276 24.1090522 -7.71622397 22.63443139 -6.84878635 18.73632908 C-6.51234104 17.20588963 -6.51234104 17.20588963 -6.16909885 15.6445322 C-5.9267551 14.58556736 -5.68441135 13.52660252 -5.43472385 12.43554783 C-5.20011448 11.36498142 -4.9655051 10.29441502 -4.72378635 9.1914072 C-2.71336447 0.1844887 -2.71336447 0.1844887 0 0 Z " fill="#FFDE28" transform="translate(23.80972385406494,41.876952171325684)"/>
<path d="M0 0 C2.15478516 -0.34057617 2.15478516 -0.34057617 4.7890625 -0.29296875 C5.73007812 -0.28330078 6.67109375 -0.27363281 7.640625 -0.26367188 C9.11789062 -0.2259668 9.11789062 -0.2259668 10.625 -0.1875 C12.11386719 -0.16719727 12.11386719 -0.16719727 13.6328125 -0.14648438 C16.08908072 -0.11105743 18.54427285 -0.06166196 21 0 C20.71314594 11.13515289 17.63020307 20.95314713 15 32 C63.015 31.505 63.015 31.505 112 31 C110.51124977 33.97750045 109.55071504 35.72490787 107.4609375 38.1015625 C106.96722656 38.66875 106.47351563 39.2359375 105.96484375 39.8203125 C105.44019531 40.41585937 104.91554688 41.01140625 104.375 41.625 C100.83725625 45.69214483 97.33563146 49.7636073 94 54 C90.29387161 58.69237462 86.41035783 63.2160022 82.50537109 67.74243164 C78.58141583 72.29882154 74.75867159 76.92500601 70.96875 81.59375 C68.78813044 84.25895169 66.55609315 86.87300461 64.2890625 89.46484375 C62.78808023 91.25237718 61.4004858 93.1326856 60 95 C72.87 95 85.74 95 99 95 C97.68 102.59 96.36 110.18 95 118 C69.26 118 43.52 118 17 118 C18.48875023 115.02249955 19.44928496 113.27509213 21.5390625 110.8984375 C22.27950806 110.0477771 22.27950806 110.0477771 23.03491211 109.17993164 C23.55964111 108.5843042 24.08437012 107.98867676 24.625 107.375 C28.14419809 103.32987876 31.62615946 99.28144566 34.9375 95.0625 C38.92381187 90.00198198 43.16013233 85.17040916 47.43334961 80.35180664 C50.61545255 76.73059372 53.36202543 73.04802779 56 69 C57.66666667 67.33333333 59.33333333 65.66666667 61 64 C64.465 59.545 64.465 59.545 68 55 C48.86 54.67 29.72 54.34 10 54 C8.12120148 66.00396652 8.12120148 66.00396652 10.625 77.5625 C14.75236583 81.79848072 19.49528241 83.19064993 25 85 C23.44842924 92.3647892 21.89413676 99.71485862 20 107 C9.45991351 106.30884679 0.71172991 103.72144045 -7.0546875 96.2890625 C-15.07146136 86.85566997 -15.51442959 76.83188059 -15 65 C-14.52039062 61.57600608 -13.82769951 58.36252927 -13 55 C-16.3 54.67 -19.6 54.34 -23 54 C-22.3576566 50.70761661 -21.7112937 47.41611267 -21.0625 44.125 C-20.88009766 43.18785156 -20.69769531 42.25070313 -20.50976562 41.28515625 C-20.33251953 40.38925781 -20.15527344 39.49335937 -19.97265625 38.5703125 C-19.81031494 37.74289551 -19.64797363 36.91547852 -19.48071289 36.06298828 C-19 34 -19 34 -18 32 C-14.37 32 -10.74 32 -7 32 C-6.9175 30.55625 -6.835 29.1125 -6.75 27.625 C-6.25663335 22.14791517 -5.2389349 16.86277957 -4.0625 11.5 C-3.89266602 10.71061035 -3.72283203 9.9212207 -3.54785156 9.10791016 C-2.74970193 5.58312934 -2.02374674 3.03562011 0 0 Z " fill="#0074E1" transform="translate(372,39)"/>
<path d="M0 0 C2.2890625 2.0703125 2.2890625 2.0703125 4 4 C4 4.66 4 5.32 4 6 C4.66 6 5.32 6 6 6 C11.04885606 16.69275587 13.3601006 27.28489752 9.75 38.9375 C9.19799435 40.30473623 8.61552991 41.66016118 8 43 C7.7215625 43.66128906 7.443125 44.32257813 7.15625 45.00390625 C0.85732688 58.87782742 -10.95536973 69.44622985 -25 75 C-36.60258721 78.84326603 -44.73539704 78.76281363 -56.27734375 74.875 C-58.8407135 73.89801168 -58.8407135 73.89801168 -61 74 C-61.11593506 74.58491211 -61.23187012 75.16982422 -61.35131836 75.77246094 C-61.87902809 78.4318437 -62.40824858 81.09092365 -62.9375 83.75 C-63.11990234 84.67039062 -63.30230469 85.59078125 -63.49023438 86.5390625 C-63.66748047 87.42851562 -63.84472656 88.31796875 -64.02734375 89.234375 C-64.18968506 90.05131836 -64.35202637 90.86826172 -64.51928711 91.70996094 C-64.96179722 93.81800809 -65.4775804 95.91032161 -66 98 C-73.26 98 -80.52 98 -88 98 C-87.43099937 89.25738217 -85.90720456 80.85437753 -84.09863281 72.30297852 C-83.62682924 70.07115307 -83.16421137 67.83757721 -82.703125 65.60351562 C-81.16212555 58.18880992 -79.50781374 50.82412222 -77.62548828 43.48706055 C-76.8660355 40.46733163 -76.24487284 37.42606242 -75.625 34.375 C-73.04087005 23.31334171 -67.96688055 15.99308739 -60 8 C-59.29875 7.27554688 -58.5975 6.55109375 -57.875 5.8046875 C-42.13570026 -9.41382658 -17.94747062 -13.16147846 0 0 Z M-49 25 C-52.54812283 30.1747694 -54.7308785 35.9309745 -53.59375 42.26171875 C-52.05656525 47.79741383 -50.03298824 50.92428496 -45 54 C-39.08398712 56.45933869 -34.33301516 56.17403483 -28.3515625 54.03515625 C-20.95908235 50.7809914 -16.91919725 46.02299104 -13 39 C-11.0663813 33.1991439 -11.00640981 27.1018254 -13.625 21.5625 C-17.21749239 17.68638979 -19.61876388 15.26997454 -25.06640625 14.65234375 C-35.57742513 14.3773114 -41.85407537 17.36650696 -49 25 Z " fill="#0074E1" transform="translate(201,68)"/>
<path d="M0 0 C1.22686158 1.0410506 2.43646669 2.10289673 3.625 3.1875 C4.17929687 3.63996094 4.73359375 4.09242187 5.3046875 4.55859375 C11.16572533 9.70522647 13.49163029 16.73666639 14.5625 24.3125 C14.94104341 30.95085885 13.56762209 37.25370007 12.16357422 43.70166016 C11.55066452 46.53060237 10.96369891 49.3643328 10.37890625 52.19921875 C9.35241711 57.1697276 8.31287238 62.13731657 7.26342773 67.10302734 C6.36162544 71.45995668 5.49757534 75.82462332 4.625 80.1875 C-2.965 80.1875 -10.555 80.1875 -18.375 80.1875 C-18.045 78.5375 -17.715 76.8875 -17.375 75.1875 C-18.18324219 75.46464844 -18.99148438 75.74179688 -19.82421875 76.02734375 C-21.42716797 76.57068359 -21.42716797 76.57068359 -23.0625 77.125 C-24.64611328 77.66447266 -24.64611328 77.66447266 -26.26171875 78.21484375 C-36.82243248 81.51423863 -46.02871504 80.6707459 -56.01953125 75.93359375 C-63.36884476 71.88981855 -68.8200825 66.31418333 -71.83984375 58.33984375 C-74.78737784 46.48516283 -73.76746901 33.66502136 -67.75 22.9375 C-58.68231887 9.34711796 -46.12106475 -1.78732744 -29.8125 -5.0625 C-19.54523238 -6.64098574 -8.72419268 -6.36765787 0 0 Z M-47.0625 29.125 C-50.39557219 34.36268486 -51.37186838 40.10351977 -50.375 46.1875 C-48.58274557 50.61813755 -46.43165135 53.49055975 -42.4375 56.125 C-35.20926846 58.6327538 -30.3897982 58.15195806 -23.375 55.1875 C-16.70206891 51.49734553 -11.0259201 45.52279057 -8.734375 38.1171875 C-7.49954545 31.48668968 -8.62423593 26.65934252 -12.375 21.1875 C-16.23989939 17.11918486 -19.8567352 16.84971937 -25.25 16.625 C-35.45351059 16.92605195 -40.55256849 21.6506342 -47.0625 29.125 Z " fill="#0074E1" transform="translate(331.375,65.8125)"/>
<path d="M0 0 C7.59 0 15.18 0 23 0 C21.76634327 8.46079912 20.28053001 16.77127803 18.3984375 25.109375 C17.90334498 27.35019397 17.40856236 29.59108142 16.9140625 31.83203125 C16.14314852 35.30409784 15.36928524 38.77544274 14.58984375 42.24560547 C13.83018827 45.63590205 13.08231963 49.02863526 12.3359375 52.421875 C11.9844313 53.9643692 11.9844313 53.9643692 11.62582397 55.5380249 C9.03517038 66.65617961 9.03517038 66.65617961 11.8125 77.3125 C15.20904553 82.25921311 20.42653247 83.5163449 26 85 C24 96 24 96 22 107 C12.15311497 106.58098362 2.26849586 104.05523925 -5 97 C-11.8211733 88.35144539 -14.51594772 80.06559018 -14 69 C-13.2768255 62.9188773 -11.92891541 56.94198796 -10.63232422 50.96240234 C-9.73126822 46.74100717 -8.90955441 42.50493434 -8.07983398 38.26904297 C-6.41456175 29.79394028 -4.71488254 21.33549808 -2.67578125 12.94140625 C-1.68942943 8.64821019 -0.86390042 4.3195021 0 0 Z " fill="#0074E1" transform="translate(231,39)"/>
<path d="M0 0 C11.73869468 29.25269984 11.73869468 29.25269984 16.25 40.75 C16.68034546 41.83643799 16.68034546 41.83643799 17.11938477 42.94482422 C19 47.76572392 19 47.76572392 19 50 C-5.75 50 -30.5 50 -56 50 C-56 47 -56 47 -54.671875 45.5625 C-54.03765625 45.046875 -53.4034375 44.53125 -52.75 44 C-49.07632199 40.92557444 -45.51591463 37.75260824 -42 34.5 C-38.09172457 30.89944372 -34.14487413 27.35442242 -30.125 23.87890625 C-27.90977072 21.92022006 -25.74248678 19.91362068 -23.57641602 17.90087891 C-19.11770415 13.76187954 -14.63845677 9.82028865 -9.6796875 6.28125 C-8.0105494 5.00804699 -6.62248125 3.6533824 -5.1875 2.125 C-3 0 -3 0 0 0 Z " fill="#0074E1" transform="translate(329,0)"/>
<path d="M0 0 C0.66 0 1.32 0 2 0 C2.33 -0.33 2.66 -0.66 3 -1 C8.41176471 -1.47058824 8.41176471 -1.47058824 10.875 0.5 C11.24625 0.995 11.6175 1.49 12 2 C12.51304687 1.51144531 13.02609375 1.02289063 13.5546875 0.51953125 C16.8570708 -1.53258872 19.26503289 -1.36487951 23.125 -1.3125 C24.36507812 -1.30863281 25.60515625 -1.30476562 26.8828125 -1.30078125 C30 -1 30 -1 32 1 C32.1953125 3.1640625 32.1953125 3.1640625 32.125 5.625 C32.10695313 6.44226563 32.08890625 7.25953125 32.0703125 8.1015625 C32.04710937 8.72804687 32.02390625 9.35453125 32 10 C30.35 10.33 28.7 10.66 27 11 C27.33 8.36 27.66 5.72 28 3 C27.01 3.33 26.02 3.66 25 4 C23.77030122 7.51190809 23.77030122 7.51190809 23 11 C21.35 11 19.7 11 18 11 C18.33 8.69 18.66 6.38 19 4 C18.01 3.67 17.02 3.34 16 3 C15.34 5.64 14.68 8.28 14 11 C12.68 11.33 11.36 11.66 10 12 C9.67 11.01 9.34 10.02 9 9 C8.34 9.66 7.68 10.32 7 11 C4.125 11.125 4.125 11.125 1 11 C-1.54200817 11 -4.08450178 11.03739661 -6.625 11.125 C-10 11 -10 11 -12 9 C-12.4375 6.125 -12.4375 6.125 -12 3 C-8.20279244 -1.48760894 -5.50522878 -1.24646689 0 0 Z M-7 3 C-7.33 4.32 -7.66 5.64 -8 7 C-6.06026027 8.19969974 -6.06026027 8.19969974 -3.9375 7.75 C-3.298125 7.5025 -2.65875 7.255 -2 7 C-1.67 6.01 -1.34 5.02 -1 4 C-3.97 3.505 -3.97 3.505 -7 3 Z M3 3 C3.33 4.65 3.66 6.3 4 8 C4.99 7.34 5.98 6.68 7 6 C7 5.01 7 4.02 7 3 C5.68 3 4.36 3 3 3 Z " fill="#0074E1" transform="translate(488,145)"/>
<path d="M0 0 C0.66 0.33 1.32 0.66 2 1 C2 2.32 2 3.64 2 5 C0.35 5 -1.3 5 -3 5 C-2.625 3.0625 -2.625 3.0625 -2 1 C-1.34 0.67 -0.68 0.34 0 0 Z " fill="#0074E1" transform="translate(473,151)"/>
</svg>
