<?xml version="1.0" encoding="UTF-8"?>
<svg version="1.1" xmlns="http://www.w3.org/2000/svg" width="121" height="121">
<path d="M0 0 C5.38073401 3.22036426 9.210945 6.79858549 11.01953125 12.93359375 C12.27207481 18.94805967 11.37651471 24.16484403 8.046875 29.4140625 C4.6915695 33.53238207 1.02954703 35.70697781 -4.234375 36.50390625 C-9.14636042 36.68833624 -13.02074239 36.62671563 -17.23046875 33.93359375 C-18.24109375 33.31484375 -19.25171875 32.69609375 -20.29296875 32.05859375 C-26.21540292 33.83347709 -31.65640156 37.39361091 -37.04296875 40.37109375 C-38.64205078 41.22477539 -38.64205078 41.22477539 -40.2734375 42.09570312 C-41.28535156 42.65708984 -42.29726563 43.21847656 -43.33984375 43.796875 C-44.26635742 44.30259033 -45.19287109 44.80830566 -46.14746094 45.3293457 C-48.49881953 46.89679523 -48.49881953 46.89679523 -49.08276367 49.58154297 C-49.18681519 50.80768311 -49.18681519 50.80768311 -49.29296875 52.05859375 C-49.39738281 53.01378906 -49.50179687 53.96898437 -49.609375 54.953125 C-49.69058594 55.91605469 -49.77179687 56.87898438 -49.85546875 57.87109375 C-49.93925781 58.84691406 -50.02304687 59.82273438 -50.109375 60.828125 C-50.20025391 61.93220703 -50.20025391 61.93220703 -50.29296875 63.05859375 C-49.57890869 63.32518799 -48.86484863 63.59178223 -48.12915039 63.86645508 C-45.22227138 65.08831013 -42.62556804 66.52564838 -39.9140625 68.1328125 C-38.91052734 68.71740234 -37.90699219 69.30199219 -36.87304688 69.90429688 C-34.76996339 71.13686849 -32.67101338 72.3765189 -30.57617188 73.62304688 C-29.07280273 74.49413086 -29.07280273 74.49413086 -27.5390625 75.3828125 C-26.62825928 75.91994873 -25.71745605 76.45708496 -24.77905273 77.01049805 C-22.40573396 78.24808793 -22.40573396 78.24808793 -20.12915039 77.82348633 C-18.10785082 77.03237845 -18.10785082 77.03237845 -15.66796875 75.49609375 C-11.08131317 73.54251822 -7.20778282 73.24704266 -2.29296875 74.05859375 C2.78080737 76.16977114 6.80205904 79.36594634 9.70703125 84.05859375 C11.73973064 89.18873983 12.25634327 93.74232703 10.70703125 99.05859375 C8.56834526 103.93053819 5.77690806 108.02324932 0.859375 110.43359375 C-4.95639066 112.12238233 -11.74279636 112.26995003 -17.23046875 109.49609375 C-21.59949634 106.01870444 -24.52191474 102.37175577 -26.29296875 97.05859375 C-26.36099842 95.33064023 -26.3779252 93.6002401 -26.35546875 91.87109375 C-26.34644531 90.97003906 -26.33742188 90.06898437 -26.328125 89.140625 C-26.31652344 88.45355469 -26.30492188 87.76648438 -26.29296875 87.05859375 C-26.95554687 86.81882812 -27.618125 86.5790625 -28.30078125 86.33203125 C-32.09212283 84.71848379 -35.59470339 82.72736795 -39.16796875 80.68359375 C-40.19083984 80.10351562 -40.19083984 80.10351562 -41.234375 79.51171875 C-42.24951172 78.93550781 -42.24951172 78.93550781 -43.28515625 78.34765625 C-44.28820801 77.78353027 -44.28820801 77.78353027 -45.31152344 77.20800781 C-46.63395929 76.4408777 -47.93745727 75.64014986 -49.21972656 74.80761719 C-51.23378685 73.48085631 -51.23378685 73.48085631 -54.29296875 72.05859375 C-56.56318391 72.54784584 -56.56318391 72.54784584 -58.29296875 74.05859375 C-64.68990273 77.75987651 -70.96633916 80.14311473 -78.4609375 78.6171875 C-85.98959516 76.06880241 -91.79312496 71.89292796 -95.41015625 64.71875 C-97.54186027 58.29534098 -97.50054827 50.93652403 -94.79296875 44.68359375 C-91.27890124 38.78096079 -85.83360974 34.15042037 -79.29296875 32.05859375 C-71.71268526 31.04002666 -66.03815721 32.0126585 -59.44921875 35.8671875 C-57.19525358 37.11258492 -55.85427663 37.7948518 -53.29296875 38.05859375 C-50.34190486 36.83785271 -50.34190486 36.83785271 -47.25 34.9453125 C-46.6809343 34.61570023 -46.11186859 34.28608795 -45.52555847 33.94648743 C-44.32620896 33.24855622 -43.13032422 32.54464145 -41.93774414 31.83520508 C-40.10879715 30.74807216 -38.269586 29.68032754 -36.42773438 28.61523438 C-30.5111345 25.69138751 -30.5111345 25.69138751 -26.29296875 21.05859375 C-26.35484375 20.02734375 -26.41671875 18.99609375 -26.48046875 17.93359375 C-26.21003996 12.34473201 -24.4482746 8.32166489 -20.57421875 4.25390625 C-14.68144906 -0.96469063 -7.6384919 -3.13607589 0 0 Z M-14.29296875 11.05859375 C-16.75256875 14.74799375 -17.09265845 17.77692183 -16.29296875 22.05859375 C-14.39647324 25.20518041 -14.39647324 25.20518041 -11.29296875 27.05859375 C-6.99021966 27.750107 -5.08351563 27.5741678 -1.41796875 25.18359375 C1.29435515 22.47126985 1.64617218 21.59618222 2.08203125 17.74609375 C2.0139344 13.96258557 2.0139344 13.96258557 -0.41796875 11.18359375 C-5.55592125 7.38597668 -9.20174802 7.09875541 -14.29296875 11.05859375 Z M-84.71875 46.5703125 C-87.44893068 50.59521805 -87.7658669 54.16708032 -86.97265625 58.91015625 C-85.62768852 63.16149103 -83.01867333 65.74943855 -79.48046875 68.43359375 C-74.48773214 69.86008992 -70.08731108 69.77605595 -65.48046875 67.43359375 C-61.48769599 64.4585866 -59.77344555 62.06157375 -58.98046875 57.10546875 C-58.66750223 51.98064193 -59.93791529 49.06601872 -63.29296875 45.05859375 C-66.12861091 42.12167866 -69.07043061 41.29405885 -73.13671875 40.9375 C-77.79838857 41.19929667 -81.53580764 43.19552156 -84.71875 46.5703125 Z M-14.29296875 86.05859375 C-16.75256875 89.74799375 -17.09265845 92.77692183 -16.29296875 97.05859375 C-14.39647324 100.20518041 -14.39647324 100.20518041 -11.29296875 102.05859375 C-6.99021966 102.750107 -5.08351563 102.5741678 -1.41796875 100.18359375 C1.29435515 97.47126985 1.64617218 96.59618222 2.08203125 92.74609375 C2.0139344 88.96258557 2.0139344 88.96258557 -0.41796875 86.18359375 C-5.55592125 82.38597668 -9.20174802 82.09875541 -14.29296875 86.05859375 Z " fill="#1B6FEF" transform="translate(103.29296875,6.94140625)"/>
</svg>
